<svg xmlns="http://www.w3.org/2000/svg" width="80" height="77" viewBox="0 0 80 77" fill="none"><path d="M32.239 41.8336C32.239 45.0553 29.6269 47.667 26.4056 47.667C23.1843 47.667 20.5723 45.0553 20.5723 41.8336C20.5723 38.612 23.1843 36.0003 26.4056 36.0003C29.6269 36.0003 32.239 38.612 32.239 41.8336Z" stroke="#52575B" stroke-width="3" stroke-miterlimit="10"></path><path d="M15.571 48.5002C15.571 51.7219 12.959 54.3335 9.73764 54.3335C6.5163 54.3335 3.9043 51.7219 3.9043 48.5002C3.9043 45.2785 6.5163 42.6668 9.73764 42.6668C12.959 42.6668 15.571 45.2785 15.571 48.5002Z" stroke="#AC231E" stroke-width="3" stroke-miterlimit="10"></path><path d="M15.5723 76L19.4674 57.8233C20.1119 54.8166 22.2389 53.2916 25.5723 52.6666L35.5723 51L45.484 42.05C45.484 42.05 48.7723 47.6666 45.1323 51.105L37.9823 58.18L27.0528 61.5216" stroke="#52575B" stroke-width="3" stroke-miterlimit="10"></path><path d="M30.5723 76L33.9056 59.3333" stroke="#52575B" stroke-width="3" stroke-miterlimit="10"></path><path d="M58.1328 46.8336C58.1328 50.0553 60.7445 52.667 63.9662 52.667C67.1878 52.667 69.7995 50.0553 69.7995 46.8336C69.7995 43.6119 67.1878 41.0003 63.9662 41.0003C60.7445 41.0003 58.1328 43.6119 58.1328 46.8336Z" stroke="#52575B" stroke-width="3" stroke-miterlimit="10"></path><path d="M77.9955 76L74.2605 63.0083C73.6171 60 71.7455 57.6666 66.4688 57.6666C62.8571 57.6666 46.4688 57.6666 46.4688 57.6666C46.4688 57.6666 47.5788 64.3333 53.1354 64.3333H66.4688" stroke="#52575B" stroke-width="3" stroke-miterlimit="10"></path><path d="M65.7037 76L61.4688 64.3333" stroke="#52575B" stroke-width="3" stroke-miterlimit="10"></path><path d="M2 76.0001L4.46684 64.4901C5.11134 61.4834 7.23834 59.9584 10.5717 59.3334L18.905 57.6668" stroke="#AC231E" stroke-width="3" stroke-miterlimit="10"></path><path d="M27.4799 7.21177L4.4375 17.0734L12.0248 22.9368L10.9962 32.3901L34.0397 22.5301" stroke="#AC231E" stroke-width="3" stroke-miterlimit="10"></path><path d="M43.2746 44.0552L24.8027 1.00011" stroke="#AC231E" stroke-width="3" stroke-miterlimit="10"></path><path d="M48.891 57.6551L45.8477 50.285" stroke="#AC231E" stroke-width="3" stroke-miterlimit="10"></path><path d="M56.4693 76L51.6543 64.3417" stroke="#AC231E" stroke-width="3" stroke-miterlimit="10"></path></svg>