<svg xmlns="http://www.w3.org/2000/svg" width="61" height="75" viewBox="0 0 61 75" fill="none"><path d="M21.1484 75V71.8085C21.1484 69.9909 26.4224 67.0213 30.7261 67.0213H30.7197C35.0235 67.0213 40.2974 69.9909 40.2974 71.8085V75" stroke="#AC231E" stroke-width="3" stroke-miterlimit="10"></path><path d="M30.7226 67.0215C34.5604 67.0215 37.1056 63.9608 37.1056 60.1837V57.9034C37.1056 54.1262 34.5604 51.064 30.7226 51.064C26.8848 51.064 24.3396 54.1262 24.3396 57.9034V60.1837C24.3396 63.9608 26.8848 67.0215 30.7226 67.0215Z" stroke="#AC231E" stroke-width="3" stroke-miterlimit="10"></path><path d="M40.2988 71.8085C40.2988 69.9909 45.5728 67.0213 49.8765 67.0213H49.8701C54.1739 67.0213 59.4478 69.9909 59.4478 71.8085V75" stroke="#52575B" stroke-width="3" stroke-miterlimit="10"></path><path d="M49.8713 67.0215C53.7091 67.0215 56.2543 63.9608 56.2543 60.1837V57.9034C56.2543 54.1263 53.7091 51.064 49.8713 51.064C46.0335 51.064 43.4883 54.1263 43.4883 57.9034V60.1837C43.4883 63.9608 46.0335 67.0215 49.8713 67.0215Z" stroke="#52575B" stroke-width="3" stroke-miterlimit="10"></path><path d="M2 75V71.8085C2 69.9909 7.27395 67.0213 11.5777 67.0213H11.5713C15.875 67.0213 21.149 69.9909 21.149 71.8085" stroke="#52575B" stroke-width="3" stroke-miterlimit="10"></path><path d="M11.5744 67.0215C15.4122 67.0215 17.9574 63.9608 17.9574 60.1837V57.9034C17.9574 54.1263 15.4122 51.064 11.5744 51.064C7.73663 51.064 5.19141 54.1263 5.19141 57.9034V60.1837C5.19141 63.9608 7.73663 67.0215 11.5744 67.0215Z" stroke="#52575B" stroke-width="3" stroke-miterlimit="10"></path><path d="M30.7227 9.57446V-3.08752e-05" stroke="#AC231E" stroke-width="3" stroke-miterlimit="10"></path><path d="M43.1445 16.7554L51.436 11.9681" stroke="#AC231E" stroke-width="3" stroke-miterlimit="10"></path><path d="M43.1582 31.117L51.4497 35.9043" stroke="#AC231E" stroke-width="3" stroke-miterlimit="10"></path><path d="M21.5137 7.98197L23.5435 11.4974" stroke="#AC231E" stroke-width="3" stroke-miterlimit="10"></path><path d="M49.8732 23.9363H45.0859" stroke="#AC231E" stroke-width="3" stroke-miterlimit="10"></path><path d="M39.9373 7.97877L37.9043 11.4974" stroke="#AC231E" stroke-width="3" stroke-miterlimit="10"></path><path d="M17.5024 16.7554L9.21094 11.9681" stroke="#AC231E" stroke-width="3" stroke-miterlimit="10"></path><path d="M17.4868 31.117L9.19531 35.9043" stroke="#AC231E" stroke-width="3" stroke-miterlimit="10"></path><path d="M11.5742 23.9363H16.3615" stroke="#AC231E" stroke-width="3" stroke-miterlimit="10"></path><path d="M25.9355 36.7022V41.4894L29.127 44.6809H32.3185L35.51 41.4894V36.7022" stroke="#AC231E" stroke-width="3" stroke-miterlimit="10"></path><path d="M35.5102 36.7021V35.1064C35.5102 33.3782 36.1054 32.0936 37.3054 30.8697C39.1134 29.025 40.2894 26.7431 40.2894 23.9314C40.2894 18.6462 36.0049 14.3617 30.7181 14.3617C25.433 14.3617 21.1484 18.6462 21.1484 23.9314C21.1484 26.7431 22.3245 29.025 24.1325 30.8697C25.3325 32.0936 25.9357 33.3782 25.9357 35.1064V36.7021H35.5102Z" stroke="#AC231E" stroke-width="3" stroke-miterlimit="10"></path></svg>