<svg xmlns="http://www.w3.org/2000/svg" width="78" height="75" viewBox="0 0 78 75" fill="none"><path d="M30.5922 29.0904C29.6634 29.0904 28.9104 28.337 28.9104 27.4086V24.0449C28.9104 22.1293 34.469 18.9994 39.0053 18.9994H38.9981C43.5345 18.9994 49.0924 22.1293 49.0924 24.0449V27.4086C49.0924 28.337 48.3395 29.0904 47.4106 29.0904H30.5922Z" stroke="#52575B" stroke-width="3" stroke-miterlimit="10"></path><path d="M39.0008 18.9995C43.0451 18.9995 45.7281 15.7738 45.7281 11.7928V9.38949C45.7281 5.40859 43.0464 2.18114 39.0008 2.18114C34.9565 2.18114 32.2734 5.40859 32.2734 9.38949V11.7928C32.2734 15.7738 34.9551 18.9995 39.0008 18.9995V18.9995Z" stroke="#52575B" stroke-width="3" stroke-miterlimit="10"></path><path d="M30.5922 72.8188C29.6634 72.8188 28.9104 72.0654 28.9104 71.137V67.7733C28.9104 65.856 34.469 62.7278 39.0053 62.7278H38.9981C43.5345 62.7278 49.0924 65.856 49.0924 67.7733V71.137C49.0924 72.0654 48.3395 72.8188 47.4106 72.8188H30.5922Z" stroke="#52575B" stroke-width="3" stroke-miterlimit="10"></path><path d="M39.0008 62.7278C43.0451 62.7278 45.7281 59.502 45.7281 55.5211V53.1178C45.7281 49.1369 43.0464 45.9094 39.0008 45.9094C34.9565 45.9094 32.2734 49.1369 32.2734 53.1178V55.5211C32.2734 59.502 34.9551 62.7278 39.0008 62.7278Z" stroke="#52575B" stroke-width="3" stroke-miterlimit="10"></path><path d="M3.68184 52.6367C2.75289 52.6367 2 51.8833 2 50.9549V47.5912C2 45.6739 7.55861 42.5457 12.095 42.5457H12.0877C16.6241 42.5457 22.182 45.6739 22.182 47.5912V50.9549C22.182 51.8833 21.4291 52.6367 20.5002 52.6367H3.68184Z" stroke="#AC231E" stroke-width="3" stroke-miterlimit="10"></path><path d="M12.0906 42.5457C16.1349 42.5457 18.818 39.3199 18.818 35.339V32.9356C18.818 28.9547 16.1363 25.7273 12.0906 25.7273C8.04633 25.7273 5.36328 28.9547 5.36328 32.9356V35.339C5.36328 39.3199 8.04568 42.5457 12.0906 42.5457Z" stroke="#AC231E" stroke-width="3" stroke-miterlimit="10"></path><path d="M57.5002 52.6367C56.5713 52.6367 55.8184 51.8833 55.8184 50.9549V47.5912C55.8184 45.6739 61.377 42.5457 65.9133 42.5457H65.906C70.4424 42.5457 76.0004 45.6739 76.0004 47.5912V50.9549C76.0004 51.8833 75.2474 52.6367 74.3186 52.6367H57.5002Z" stroke="#AC231E" stroke-width="3" stroke-miterlimit="10"></path><path d="M65.9109 42.5457C69.9553 42.5457 72.6383 39.3199 72.6383 35.339V32.9356C72.6383 28.9547 69.9566 25.7273 65.9109 25.7273C61.8666 25.7273 59.1836 28.9547 59.1836 32.9356V35.339C59.1836 39.3199 61.8653 42.5457 65.9109 42.5457Z" stroke="#AC231E" stroke-width="3" stroke-miterlimit="10"></path><path d="M12.9434 20.6822C16.4957 15.6872 21.4478 11.7584 27.2278 9.46606" stroke="#52575B" stroke-width="3" stroke-miterlimit="10"></path><path d="M23.8648 67.3311C19.5236 64.9933 15.7861 61.6784 12.9434 57.6824" stroke="#52575B" stroke-width="3" stroke-miterlimit="10"></path><path d="M65.0579 20.6821C61.5057 15.6871 56.5527 11.7583 50.7734 9.46597" stroke="#52575B" stroke-width="3" stroke-miterlimit="10"></path><path d="M54.1367 67.3311C58.4774 64.9933 62.2154 61.6784 65.0582 57.6824" stroke="#52575B" stroke-width="3" stroke-miterlimit="10"></path></svg>