<svg xmlns="http://www.w3.org/2000/svg" width="84" height="84" viewBox="0 0 84 84" fill="none"><path d="M79.3317 37.3332C79.3317 57.9518 62.617 74.6665 41.9984 74.6665C21.381 74.6665 4.66504 57.9518 4.66504 37.3332C4.66504 16.7145 21.381 -0.00015831 41.9984 -0.00015831C62.617 -0.00015831 79.3317 16.7145 79.3317 37.3332Z" fill="white"></path><path d="M41.998 33.3333C36.0074 33.3333 28.666 36.7133 28.666 38.6667V46.6667C28.666 48.6213 36.0074 52 41.998 52C47.99 52 55.3314 48.6213 55.3314 46.6667V38.6667C55.3314 36.7133 47.99 33.3333 41.998 33.3333Z" fill="#D6DCE1"></path><path d="M41.9987 33.3159C45.7214 33.3159 48.6654 30.2706 48.6654 26.5132V24.2452C48.6654 20.4879 45.7214 17.4426 41.9987 17.4426C38.276 17.4426 35.332 20.4879 35.332 24.2452V26.5132C35.332 30.2706 38.276 33.3159 41.9987 33.3159Z" fill="white"></path><path d="M41.9987 33.3159C45.7214 33.3159 48.6654 30.2706 48.6654 26.5132V24.2452C48.6654 20.4879 45.7214 17.4426 41.9987 17.4426C38.276 17.4426 35.332 20.4879 35.332 24.2452V26.5132C35.332 30.2706 38.276 33.3159 41.9987 33.3159Z" stroke="#AC231E" stroke-width="2.66667" stroke-miterlimit="10"></path><path d="M55.3314 46.6665V38.6665C55.3314 36.7132 47.9941 33.3332 42.0034 33.3332C36.0141 33.3332 28.6768 36.7132 28.6768 38.6665V46.6665" stroke="#AC231E" stroke-width="2.66667" stroke-miterlimit="10" stroke-linecap="round" stroke-linejoin="round"></path><path d="M41.998 65.3333C36.0074 65.3333 28.666 68.7133 28.666 70.6667V78.6667C28.666 80.6213 36.0074 84 41.998 84C47.99 84 55.3314 80.6213 55.3314 78.6667V70.6667C55.3314 68.7133 47.99 65.3333 41.998 65.3333Z" fill="#D6DCE1"></path><path d="M41.9987 65.3159C45.7214 65.3159 48.6654 62.2706 48.6654 58.5132V56.2452C48.6654 52.4879 45.7214 49.4426 41.9987 49.4426C38.276 49.4426 35.332 52.4879 35.332 56.2452V58.5132C35.332 62.2706 38.276 65.3159 41.9987 65.3159Z" fill="white"></path><path d="M41.9987 65.3159C45.7214 65.3159 48.6654 62.2706 48.6654 58.5132V56.2452C48.6654 52.4879 45.7214 49.4426 41.9987 49.4426C38.276 49.4426 35.332 52.4879 35.332 56.2452V58.5132C35.332 62.2706 38.276 65.3159 41.9987 65.3159Z" stroke="#AC231E" stroke-width="2.66667" stroke-miterlimit="10"></path><path d="M55.3314 78.6665V70.6665C55.3314 68.7132 47.9941 65.3332 42.0034 65.3332C36.0141 65.3332 28.6768 68.7132 28.6768 70.6665V78.6665" stroke="#AC231E" stroke-width="2.66667" stroke-miterlimit="10" stroke-linecap="round" stroke-linejoin="round"></path><path d="M15.332 49.3333C9.34135 49.3333 2 52.7133 2 54.6667V62.6667C2 64.6213 9.34135 68 15.332 68C21.324 68 28.6653 64.6213 28.6653 62.6667V54.6667C28.6653 52.7133 21.324 49.3333 15.332 49.3333Z" fill="#D6DCE1"></path><path d="M15.3317 49.3159C19.0544 49.3159 21.9984 46.2706 21.9984 42.5132V40.2452C21.9984 36.4879 19.0544 33.4426 15.3317 33.4426C11.609 33.4426 8.66504 36.4879 8.66504 40.2452V42.5132C8.66504 46.2706 11.609 49.3159 15.3317 49.3159Z" fill="white"></path><path d="M15.3317 49.3159C19.0544 49.3159 21.9984 46.2706 21.9984 42.5132V40.2452C21.9984 36.4879 19.0544 33.4426 15.3317 33.4426C11.609 33.4426 8.66504 36.4879 8.66504 40.2452V42.5132C8.66504 46.2706 11.609 49.3159 15.3317 49.3159Z" stroke="#AC231E" stroke-width="2.66667" stroke-miterlimit="10"></path><path d="M28.6654 62.6665V54.6665C28.6654 52.7132 21.3281 49.3332 15.3374 49.3332C9.34807 49.3332 2.01074 52.7132 2.01074 54.6665V62.6665" stroke="#AC231E" stroke-width="2.66667" stroke-miterlimit="10" stroke-linecap="round" stroke-linejoin="round"></path><path d="M68.665 49.3333C62.6744 49.3333 55.333 52.7133 55.333 54.6667V62.6667C55.333 64.6213 62.6744 68 68.665 68C74.657 68 81.9984 64.6213 81.9984 62.6667V54.6667C81.9984 52.7133 74.657 49.3333 68.665 49.3333Z" fill="#D6DCE1"></path><path d="M68.6647 49.3159C72.3874 49.3159 75.3314 46.2706 75.3314 42.5132V40.2452C75.3314 36.4879 72.3874 33.4426 68.6647 33.4426C64.942 33.4426 61.998 36.4879 61.998 40.2452V42.5132C61.998 46.2706 64.942 49.3159 68.6647 49.3159Z" fill="white"></path><path d="M68.6647 49.3159C72.3874 49.3159 75.3314 46.2706 75.3314 42.5132V40.2452C75.3314 36.4879 72.3874 33.4426 68.6647 33.4426C64.942 33.4426 61.998 36.4879 61.998 40.2452V42.5132C61.998 46.2706 64.942 49.3159 68.6647 49.3159Z" stroke="#AC231E" stroke-width="2.66667" stroke-miterlimit="10"></path><path d="M81.9984 62.6665V54.6665C81.9984 52.7132 74.6611 49.3332 68.6704 49.3332C62.6811 49.3332 55.3438 52.7132 55.3438 54.6665V62.6665" stroke="#AC231E" stroke-width="2.66667" stroke-miterlimit="10" stroke-linecap="round" stroke-linejoin="round"></path><path d="M21.998 18.6668V21.3335" stroke="#FFC7C5" stroke-width="2.66667" stroke-miterlimit="10"></path><path d="M21.998 23.9998V26.6665" stroke="#FFC7C5" stroke-width="2.66667" stroke-miterlimit="10"></path><path d="M20.6647 22.6665H17.998" stroke="#FFC7C5" stroke-width="2.66667" stroke-miterlimit="10"></path><path d="M25.9987 22.6665H23.332" stroke="#FFC7C5" stroke-width="2.66667" stroke-miterlimit="10"></path><path d="M27.3317 10.6668L24.665 13.3335" stroke="#FFC7C5" stroke-width="2.66667" stroke-miterlimit="10"></path><path d="M33.9987 3.99984L31.332 6.6665" stroke="#FFC7C5" stroke-width="2.66667" stroke-miterlimit="10"></path><path d="M31.332 10.6668L33.9987 13.3335" stroke="#FFC7C5" stroke-width="2.66667" stroke-miterlimit="10"></path><path d="M24.665 3.99984L27.3317 6.6665" stroke="#FFC7C5" stroke-width="2.66667" stroke-miterlimit="10"></path></svg>