<svg xmlns="http://www.w3.org/2000/svg" width="82" height="78" viewBox="0 0 82 78" fill="none"><path d="M81.6185 38.8265C81.6185 57.9718 66.0985 73.4932 46.9518 73.4932C27.8065 73.4932 12.2852 57.9718 12.2852 38.8265C12.2852 19.6812 27.8065 4.15983 46.9518 4.15983C66.0985 4.15983 81.6185 19.6812 81.6185 38.8265Z" fill="white"></path><path d="M27.9991 6.45322L4.64844 16.4466L12.3364 22.3892L11.2951 31.9692L34.6444 21.9759" fill="white"></path><path d="M27.9991 6.45322L4.64844 16.4466L12.3364 22.3892L11.2951 31.9692L34.6444 21.9759" stroke="#AC231E" stroke-width="2.66667" stroke-miterlimit="10" stroke-linecap="round" stroke-linejoin="round"></path><path d="M75.4045 62.9962C74.7511 59.9468 72.9685 57.4935 67.6191 57.4935C63.9605 57.4935 47.6191 57.4935 47.6191 57.4935C47.6191 57.4935 48.6565 64.1602 54.2858 64.1602H62.3765L66.7338 76.1602H79.1898L75.4045 62.9962Z" fill="#D6DCE1"></path><path d="M46.2423 41.7575L36.1984 50.8268L26.065 52.5162C22.7957 53.1282 20.677 54.6082 19.9517 57.4655L10.865 59.2708C7.48769 59.9042 5.33169 61.4495 4.67835 64.4975L2.17969 76.1602H31.1317L34.489 59.3722L38.641 58.1028L45.8864 50.9322C49.5744 47.4482 46.2423 41.7575 46.2423 41.7575" fill="#D6DCE1"></path><path d="M15.9316 76.1602L19.8783 57.7428C20.5316 54.6935 22.6876 53.1495 26.065 52.5162L36.1983 50.8268L46.2423 41.7575C46.2423 41.7575 49.5743 47.4482 45.8863 50.9322L38.641 58.1028L27.565 61.4882" stroke="#AC231E" stroke-width="2.66667" stroke-miterlimit="10" stroke-linecap="round" stroke-linejoin="round"></path><path d="M31.1318 76.1602L34.4892 59.3722" stroke="#AC231E" stroke-width="2.66667" stroke-miterlimit="10" stroke-linecap="round" stroke-linejoin="round"></path><path d="M79.1898 76.1602L75.4045 62.9962C74.7511 59.9468 72.9685 57.4935 67.6191 57.4935C63.9605 57.4935 47.6191 57.4935 47.6191 57.4935C47.6191 57.4935 48.6565 64.1602 54.2858 64.1602H67.6191" stroke="#AC231E" stroke-width="2.66667" stroke-miterlimit="10" stroke-linecap="round" stroke-linejoin="round"></path><path d="M66.7333 76.1602L62.376 64.1602" stroke="#AC231E" stroke-width="2.66667" stroke-miterlimit="10" stroke-linecap="round" stroke-linejoin="round"></path><path d="M2.17969 76.1602L4.67835 64.4975C5.33169 61.4495 7.48769 59.9042 10.865 59.2708L19.9437 57.4642" stroke="#AC231E" stroke-width="2.66667" stroke-miterlimit="10" stroke-linecap="round" stroke-linejoin="round"></path><path d="M44.0025 43.7881L26.1318 2.13343" stroke="#AC231E" stroke-width="2.66667" stroke-miterlimit="10" stroke-linecap="round" stroke-linejoin="round"></path><path d="M49.6637 57.4932L46.6104 50.1025" stroke="#AC231E" stroke-width="2.66667" stroke-miterlimit="10" stroke-linecap="round" stroke-linejoin="round"></path><path d="M57.3732 76.1602L52.2852 63.8415" stroke="#AC231E" stroke-width="2.66667" stroke-miterlimit="10" stroke-linecap="round" stroke-linejoin="round"></path><path d="M70.9521 47.4932C70.9521 50.8065 68.2668 53.4932 64.9521 53.4932C61.6388 53.4932 58.9521 50.8065 58.9521 47.4932C58.9521 44.1798 61.6388 41.4932 64.9521 41.4932C68.2668 41.4932 70.9521 44.1798 70.9521 47.4932Z" fill="white"></path><path d="M70.9521 47.4932C70.9521 50.8065 68.2668 53.4932 64.9521 53.4932C61.6388 53.4932 58.9521 50.8065 58.9521 47.4932C58.9521 44.1798 61.6388 41.4932 64.9521 41.4932C68.2668 41.4932 70.9521 44.1798 70.9521 47.4932Z" stroke="#AC231E" stroke-width="2.66667" stroke-miterlimit="10" stroke-linecap="round" stroke-linejoin="round"></path><path d="M33.6191 42.1602C33.6191 45.4735 30.9338 48.1602 27.6191 48.1602C24.3058 48.1602 21.6191 45.4735 21.6191 42.1602C21.6191 38.8468 24.3058 36.1602 27.6191 36.1602C30.9338 36.1602 33.6191 38.8468 33.6191 42.1602Z" fill="white"></path><path d="M33.6191 42.1602C33.6191 45.4735 30.9338 48.1602 27.6191 48.1602C24.3058 48.1602 21.6191 45.4735 21.6191 42.1602C21.6191 38.8468 24.3058 36.1602 27.6191 36.1602C30.9338 36.1602 33.6191 38.8468 33.6191 42.1602Z" stroke="#AC231E" stroke-width="2.66667" stroke-miterlimit="10" stroke-linecap="round" stroke-linejoin="round"></path><path d="M16.2852 48.8267C16.2852 52.14 13.5998 54.8267 10.2852 54.8267C6.97182 54.8267 4.28516 52.14 4.28516 48.8267C4.28516 45.5133 6.97182 42.8267 10.2852 42.8267C13.5998 42.8267 16.2852 45.5133 16.2852 48.8267Z" fill="white"></path><path d="M16.2852 48.8267C16.2852 52.14 13.5998 54.8267 10.2852 54.8267C6.97182 54.8267 4.28516 52.14 4.28516 48.8267C4.28516 45.5133 6.97182 42.8267 10.2852 42.8267C13.5998 42.8267 16.2852 45.5133 16.2852 48.8267Z" stroke="#AC231E" stroke-width="2.66667" stroke-miterlimit="10" stroke-linecap="round" stroke-linejoin="round"></path><path d="M64.2852 25.4935V28.1602" stroke="#FFC7C5" stroke-width="2.66667" stroke-miterlimit="10"></path><path d="M64.2852 30.8265V33.4932" stroke="#FFC7C5" stroke-width="2.66667" stroke-miterlimit="10"></path><path d="M65.6191 29.4932H68.2858" stroke="#FFC7C5" stroke-width="2.66667" stroke-miterlimit="10"></path><path d="M60.2852 29.4932H62.9518" stroke="#FFC7C5" stroke-width="2.66667" stroke-miterlimit="10"></path><path d="M56.2852 18.8265L58.9518 21.4932" stroke="#FFC7C5" stroke-width="2.66667" stroke-miterlimit="10"></path><path d="M49.6191 12.16L52.2858 14.8267" stroke="#FFC7C5" stroke-width="2.66667" stroke-miterlimit="10"></path><path d="M52.2858 18.8265L49.6191 21.4932" stroke="#FFC7C5" stroke-width="2.66667" stroke-miterlimit="10"></path><path d="M58.9518 12.16L56.2852 14.8267" stroke="#FFC7C5" stroke-width="2.66667" stroke-miterlimit="10"></path></svg>