<svg xmlns="http://www.w3.org/2000/svg" width="64" height="64" viewBox="0 0 64 64" fill="none"><g clip-path="url(#clip0_240_18)"><path d="M36 51H2C2 51 2 44 11.4 42.2C20.8 40.4 20 38.6 20 37V35C18.0184 33.1021 16.629 30.6708 16 28C13.5 28 12 25 12 22C12 21.2 12 18 14 18C12.4 11.6 13.6 5.00001 18 5.00001C28.4 -1.99999 43 3.50001 38 18C40 18 40 21.2 40 22C40 25 38.5 28 36 28C35.3764 30.6729 33.9862 33.1057 32 35V37C32 38.1 32.5 40 35.9 41L44 43" stroke="white" stroke-width="3" stroke-miterlimit="10" stroke-linecap="round" stroke-linejoin="round"></path><path d="M35.8008 51.5L41.8008 57.5M56.0008 31L35.2008 51.7L30.8008 62L41.2008 57.7L62.0008 37L56.0008 31Z" stroke="white" stroke-width="3" stroke-miterlimit="10" stroke-linecap="round" stroke-linejoin="round"></path></g><defs><clipPath id="clip0_240_18"><rect width="64" height="64" fill="white"></rect></clipPath></defs></svg>