<svg xmlns="http://www.w3.org/2000/svg" width="64" height="64" viewBox="0 0 64 64" fill="none"><path d="M46.0252 33.56L51.4522 38.991C52.205 39.7274 53.2179 40.1371 54.271 40.1313C55.3241 40.1255 56.3325 39.7046 57.0772 38.96C57.8219 38.2154 58.243 37.2072 58.2489 36.1541C58.2549 35.101 57.8454 34.088 57.1092 33.335L43.6802 19.9C41.2392 17.46 38.5432 17.228 35.6642 20.108L34.8262 20.936C34.0707 21.659 33.0621 22.0574 32.0164 22.0459C30.9708 22.0343 29.9712 21.6138 29.2319 20.8743C28.4925 20.1348 28.0721 19.1352 28.0608 18.0895C28.0494 17.0439 28.448 16.0354 29.1712 15.28L32.0002 12.455C35.2662 9.185 37.1242 8 39.8732 8H44.2132L62.0002 25.776L55.7702 32.006" stroke="white" stroke-width="3" stroke-miterlimit="10" stroke-linecap="round" stroke-linejoin="round"></path><path d="M46.0139 33.5591L52.8579 40.4001C53.6085 41.1504 54.0303 42.1681 54.0305 43.2294C54.0306 44.2906 53.6092 45.3085 52.8589 46.0591C52.1086 46.8096 51.0909 47.2314 50.0296 47.2316C48.9684 47.2318 47.9505 46.8104 47.1999 46.0601L40.9609 39.8181" stroke="white" stroke-width="3" stroke-miterlimit="10" stroke-linecap="round" stroke-linejoin="round"></path><path d="M40.9626 39.8181L45.7876 44.6451C46.4954 45.403 46.8812 46.4062 46.8636 47.4431C46.846 48.4799 46.4265 49.4695 45.6934 50.2029C44.9603 50.9364 43.971 51.3565 42.9341 51.3746C41.8973 51.3928 40.8939 51.0075 40.1356 50.3001L37.3086 47.4721" stroke="white" stroke-width="3" stroke-miterlimit="10" stroke-linecap="round" stroke-linejoin="round"></path><path d="M37.616 47.78L39.006 49.173C39.7248 49.9289 40.1197 50.9358 40.1068 51.9789C40.0938 53.0219 39.6738 54.0186 38.9365 54.7565C38.1992 55.4944 37.2027 55.915 36.1597 55.9287C35.1166 55.9424 34.1095 55.5482 33.353 54.83L31.963 53.436M8.45 32.007L2 25.556L18.021 9.53096C18.021 9.53096 20.153 12.013 21.945 12.013C24.119 12.013 24.651 11.307 25.945 10.013C28.069 7.88696 31.265 7.94996 33.945 10.626" stroke="white" stroke-width="3" stroke-miterlimit="10" stroke-linecap="round" stroke-linejoin="round"></path><path d="M15.6003 36.1629C15.9912 35.7962 16.3045 35.3547 16.5214 34.8646C16.7383 34.3745 16.8546 33.8458 16.8632 33.3098C16.8718 32.7739 16.7726 32.2418 16.5715 31.7449C16.3704 31.2481 16.0715 30.7967 15.6926 30.4177C15.3137 30.0386 14.8624 29.7396 14.3657 29.5383C13.8689 29.3371 13.3368 29.2377 12.8009 29.2461C12.2649 29.2545 11.7362 29.3706 11.246 29.5873C10.7558 29.8041 10.3142 30.1171 9.94733 30.5079L7.12233 33.3349C6.39919 34.0903 6.00061 35.0988 6.01195 36.1445C6.0233 37.1901 6.44368 38.1897 7.18304 38.9292C7.9224 39.6687 8.92196 40.0893 9.9676 40.1008C11.0132 40.1123 12.0218 39.7139 12.7773 38.9909L15.6003 36.1629Z" stroke="white" stroke-width="3" stroke-miterlimit="10" stroke-linecap="round" stroke-linejoin="round"></path><path d="M21.2586 41.8181C22.0086 41.0678 22.4299 40.0503 22.4297 38.9894C22.4295 37.9285 22.0079 36.9111 21.2576 36.1611C20.5073 35.4111 19.4897 34.9898 18.4289 34.99C17.368 34.9902 16.3506 35.4118 15.6006 36.1621L11.3626 40.4001C10.6394 41.1555 10.2408 42.164 10.2522 43.2096C10.2635 44.2553 10.6839 45.2549 11.4233 45.9944C12.1626 46.7339 13.1622 47.1544 14.2078 47.166C15.2535 47.1775 16.2621 46.7791 17.0176 46.0561L21.2586 41.8181ZM26.9116 47.4741C27.6262 46.7173 28.0178 45.7118 28.003 44.671C27.9883 43.6302 27.5685 42.6362 26.8326 41.9C26.0968 41.1638 25.103 40.7434 24.0622 40.7281C23.0214 40.7128 22.0157 41.1038 21.2586 41.8181L18.4316 44.6451C17.7131 45.4013 17.3184 46.4083 17.3318 47.4514C17.3452 48.4944 17.7654 49.491 18.503 50.2286C19.2407 50.9662 20.2372 51.3865 21.2803 51.3998C22.3233 51.4132 23.3303 51.0186 24.0866 50.3001L26.9116 47.4741Z" stroke="white" stroke-width="3" stroke-miterlimit="10" stroke-linecap="round" stroke-linejoin="round"></path><path d="M32.2573 53.436C32.6287 53.0645 32.9233 52.6235 33.1242 52.1381C33.3251 51.6528 33.4285 51.1326 33.4284 50.6073C33.4283 50.082 33.3248 49.5619 33.1237 49.0766C32.9226 48.5913 32.6278 48.1504 32.2563 47.779C31.8848 47.4076 31.4438 47.1131 30.9584 46.9121C30.4731 46.7112 29.9529 46.6078 29.4276 46.6079C28.9023 46.608 28.3822 46.7116 27.8969 46.9127C27.4116 47.1138 26.9707 47.4085 26.5993 47.78L25.2073 49.173C24.4786 49.9273 24.0752 50.9376 24.0841 51.9864C24.0931 53.0352 24.5136 54.0385 25.2551 54.7803C25.9966 55.5221 26.9997 55.9429 28.0485 55.9522C29.0973 55.9615 30.1078 55.5585 30.8623 54.83L32.2573 53.436Z" stroke="white" stroke-width="3" stroke-miterlimit="10" stroke-linecap="round" stroke-linejoin="round"></path></svg>