<svg xmlns="http://www.w3.org/2000/svg" width="64" height="64" viewBox="0 0 64 64" fill="none"><g clip-path="url(#clip0_240_25)"><path d="M41.5408 37.2849L61.1228 56.8799C61.6854 57.4427 62.0013 58.2059 62.0011 59.0016C62.0009 59.7973 61.6846 60.5604 61.1218 61.1229C60.559 61.6854 59.7958 62.0014 59.0001 62.0012C58.2044 62.001 57.4414 61.6847 56.8788 61.1219L37.2988 41.5289" stroke="white" stroke-width="3" stroke-miterlimit="10" stroke-linecap="round" stroke-linejoin="round"></path><path d="M24 46C36.1503 46 46 36.1503 46 24C46 11.8497 36.1503 2 24 2C11.8497 2 2 11.8497 2 24C2 36.1503 11.8497 46 24 46Z" stroke="white" stroke-width="3" stroke-miterlimit="10" stroke-linecap="round" stroke-linejoin="round"></path><path d="M24 40C32.8366 40 40 32.8366 40 24C40 15.1634 32.8366 8 24 8C15.1634 8 8 15.1634 8 24C8 32.8366 15.1634 40 24 40Z" stroke="white" stroke-width="3" stroke-miterlimit="10" stroke-linecap="round" stroke-linejoin="round"></path></g><defs><clipPath id="clip0_240_25"><rect width="64" height="64" fill="white"></rect></clipPath></defs></svg>