<svg xmlns="http://www.w3.org/2000/svg" width="64" height="64" viewBox="0 0 64 64" fill="none"><path d="M30 38C32.0357 37.7024 34.0428 37.2341 36 36.6C39.1 35.5 39 33.9 39 33V31M38.2 10C39.8352 8.66702 41.8907 7.95821 44 8.00004C48 8.00004 53 10.4 53 16.6V22.4C52.9897 24.0366 52.6271 25.6518 51.9368 27.1358C51.2466 28.6198 50.245 29.9377 49 31V32.9C49 34.1 48.9 36.2 54.9 37.4C60.9 38.6 62 44 62 44V48H52" stroke="white" stroke-width="3" stroke-miterlimit="10" stroke-linecap="round" stroke-linejoin="round"></path><path d="M37.4 43.9C29.9 42.9 30 40.2 30 38.8V36.5C32.7 34.1 34 30.1 34 25.6V18.6C34 11 28.9 8 24 8C19.1 8 14 11 14 18.6V25.6C14 30.1 15.3 34.2 18 36.6V39C18 40.5 18.1 42.9 10.6 43.9C3.1 44.9 2 52 2 52V56H46V52C46 52 46 45.2 37.4 43.9Z" stroke="white" stroke-width="3" stroke-miterlimit="10" stroke-linecap="round" stroke-linejoin="round"></path></svg>